<?xml version="1.0" encoding="UTF-8" standalone="no"?>
<svg
   xmlns:dc="http://purl.org/dc/elements/1.1/"
   xmlns:cc="http://creativecommons.org/ns#"
   xmlns:rdf="http://www.w3.org/1999/02/22-rdf-syntax-ns#"
   xmlns:svg="http://www.w3.org/2000/svg"
   xmlns="http://www.w3.org/2000/svg"
   xmlns:sodipodi="http://sodipodi.sourceforge.net/DTD/sodipodi-0.dtd"
   xmlns:inkscape="http://www.inkscape.org/namespaces/inkscape"
   sodipodi:docname="logo.svg"
   inkscape:version="1.0 (4035a4fb49, 2020-05-01)"
   id="svg8"
   version="1.1"
   viewBox="0 0 157.49921 261.73419"
   height="261.73419mm"
   width="157.49921mm">
  <defs
     id="defs2" />
  <sodipodi:namedview
     inkscape:window-maximized="1"
     inkscape:window-y="-9"
     inkscape:window-x="-9"
     inkscape:window-height="1001"
     inkscape:window-width="1920"
     showgrid="false"
     inkscape:document-rotation="0"
     inkscape:current-layer="layer1"
     inkscape:document-units="mm"
     inkscape:cy="486.26573"
     inkscape:cx="742.6076"
     inkscape:zoom="0.35"
     inkscape:pageshadow="2"
     inkscape:pageopacity="0.0"
     borderopacity="1.0"
     bordercolor="#666666"
     pagecolor="#ffffff"
     id="base" />
  <metadata
     id="metadata5">
    <rdf:RDF>
      <cc:Work
         rdf:about="">
        <dc:format>image/svg+xml</dc:format>
        <dc:type
           rdf:resource="http://purl.org/dc/dcmitype/StillImage" />
        <dc:title></dc:title>
      </cc:Work>
    </rdf:RDF>
  </metadata>
  <g
     transform="translate(-16.932928,-13.191033)"
     id="layer1"
     inkscape:groupmode="layer"
     inkscape:label="Layer 1">
    <g
       transform="matrix(1.1391971,0,0,0.98723371,124.81488,106.85778)"
       style="font-style:normal;font-weight:normal;font-size:258.785px;line-height:1.25;font-family:sans-serif;fill:#241c1c;fill-opacity:1;stroke:none;stroke-width:6.46964"
       id="text835"
       aria-label="{">
      <path
         transform="matrix(0.23225422,0,0,0.26800476,-109.5639,-108.2396)"
         d="m 118.49023,54.832031 c -27.431657,0 -49.515621,19.137747 -49.515621,42.910157 V 991.20117 c 0,23.77243 22.083964,42.91013 49.515621,42.91013 H 604.7793 c 27.43166,0 49.51562,-19.1377 49.51562,-42.91013 V 97.742188 c 0,-23.77241 -22.08396,-42.910157 -49.51562,-42.910157 z M 439.53125,156.24219 h 53.9668 v 64.47461 h -49.18946 c -32.47549,0 -48.71484,17.51062 -48.71484,52.5332 v 161.42188 c 0,51.26032 -22.76362,88.67177 -68.29297,112.23242 25.15258,12.73549 42.82332,28.01798 53.01172,45.84765 10.18837,17.82967 15.28125,42.66324 15.28125,74.50196 v 148.05078 c 0,20.05838 3.66146,34.38598 10.98437,42.98242 7.6413,8.59646 20.21919,12.89453 37.73047,12.89453 h 49.18946 v 64.47266 h -53.9668 c -42.98225,0 -75.77538,-10.98442 -98.38086,-32.95313 C 318.86331,881.05085 307.7207,849.21263 307.7207,807.18555 V 662.47852 c 0,-29.61001 -6.52817,-50.30563 -19.58203,-62.08594 -12.73549,-12.09872 -35.49911,-19.10335 -68.29297,-21.01367 v -64.47266 c 30.88353,-1.27355 53.17067,-8.11807 66.86133,-20.53516 14.00902,-12.4171 21.01367,-32.31792 21.01367,-59.69921 V 285.18945 c 0,-42.34548 11.14261,-74.34382 33.42969,-95.99414 22.28709,-21.96871 55.08022,-32.95312 98.38086,-32.95312 z"
         style="fill:#241c1c;stroke:#000000;stroke-width:9.9523;stroke-opacity:0"
         id="rect843" />
    </g>
  </g>
  <g
     transform="translate(-16.932928,-13.191033)"
     inkscape:label="Layer 2"
     id="layer2"
     inkscape:groupmode="layer">
    <g
       aria-label="{"
       id="text835-0"
       style="font-style:normal;font-weight:normal;font-size:258.785px;line-height:1.25;font-family:sans-serif;fill:#483737;fill-opacity:1;stroke:none;stroke-width:6.46964"
       transform="matrix(1.1391971,0,0,0.98723371,333.02523,99.626893)">
      <rect
         style="fill:#483737;stroke:#000000;stroke-width:2.483;stroke-opacity:0"
         id="rect843-0"
         width="135.94321"
         height="262.45175"
         x="-93.544327"
         y="-93.544334"
         ry="11.500215" />
    </g>
    <path
       id="path840-7"
       style="font-style:normal;font-variant:normal;font-weight:normal;font-stretch:normal;font-size:258.785px;line-height:1.25;font-family:Utah;-inkscape-font-specification:Utah;fill:#ffdd55;fill-opacity:1;stroke:none;stroke-width:6.46964"
       d="m 266.37768,129.00469 q 12.2569,-0.50544 17.69039,-5.43347 5.55982,-4.92804 5.55982,-15.79499 V 68.225605 q 0,-16.805862 8.84519,-25.398333 8.84519,-8.71883 26.03013,-8.71883 h 14.27868 v 17.058582 h -13.01508 q -12.88871,0 -12.88871,13.899586 v 42.70962 q 0,20.34394 -18.06946,29.69457 9.98243,5.0544 14.02595,12.13055 4.04351,7.07615 4.04351,19.71214 v 39.17157 q 0,7.96067 2.90628,11.37239 3.03264,3.41172 9.98243,3.41172 h 13.01508 v 17.05857 h -14.27868 q -17.05858,0 -26.03013,-8.71883 -8.84519,-8.59247 -8.84519,-25.27197 v -38.28705 q 0,-11.75147 -5.18075,-16.42678 -5.05439,-4.80168 -18.06946,-5.55984 z" />
  </g>
</svg>
